<?xml version="1.0" encoding="utf-8"?>
<!-- Generator: Adobe Illustrator 27.5.0, SVG Export Plug-In . SVG Version: 6.00 Build 0)  -->
<svg version="1.1" id="Слой_1" xmlns="http://www.w3.org/2000/svg" xmlns:xlink="http://www.w3.org/1999/xlink" x="0px" y="0px"
	 viewBox="0 0 2800 2000" style="enable-background:new 0 0 2800 2000;" xml:space="preserve">
<rect style="fill:#FFFFFF;" width="2800" height="2000"/>
<g>
	<path style="fill:#E3EAFF;" d="M333.923,1862.672c-185.433-201.908-278.925-418.178-210.31-739.463
		c45.364-212.416,190.567-237.775,323.786-365.503c65.746-63.036,24.395-154.789,23.174-245.854
		c-2.787-233.208,257.474-414.173,496.747-410.396c259.172,4.09,371.362,264.65,588.768,278.625
		c85.369,1.31,161.812-48.793,237.343-88.59c223.805-117.925,578.934-42.724,596.88,242.459
		c4.633,154.01-113.419,329.522,62.203,410.524c139.968,64.558,224.138,160.605,249.361,391.508
		c33.016,302.223-141.527,468.094-368.968,545.873L333.923,1862.672z"/>
	<g>
		<path style="fill:#A9B9EB;" d="M2547,1474.736c0,0,6.816,39.787-43.146,88.965c-50.923,50.101-60.123,94.246-60.123,94.246
			l-35.337,13.658c0,0,17.194-66.014,60.028-104.329C2522.099,1519.385,2547,1474.736,2547,1474.736z"/>
		<path style="fill:#A9B9EB;" d="M2621.156,1521.521c0,0-4.693,29.383-51.186,56.342c-47.45,27.404-64.236,57.402-64.236,57.402
			l-29.025,10.205c0,0,28.668-50.393,67.691-70.744C2593.17,1549.238,2621.156,1521.521,2621.156,1521.521z"/>
		<path style="fill:#A9B9EB;" d="M2465.719,1517.404c0,0-30.779,8.528-70.943,72.65c-32.738,52.248-30.189,86.498-50.463,118.442
			l48.285-25.521c10.781-23.924,0.629-45.749,28.021-94.566C2446.248,1542.695,2465.719,1517.404,2465.719,1517.404z"/>
		<path style="fill:#A9B9EB;" d="M2169.944,1649.924c0,0-20.839,24.324-18.402,99.877c1.956,61.637,27.739,78.793,28.804,93.225
			l21.803-23.119c-7.621-26.607-25.6-30.043-30.085-85.842C2167.906,1681.721,2169.944,1649.924,2169.944,1649.924z"/>
		<path style="fill:#A9B9EB;" d="M2392.754,1540.625c0,0-34.275,43.189-49.176,73.174c-21.262,42.583-12.043,72.62-30.635,117.678
			l-35.101,21.209c0,0-4.749-55.801,23.589-107.295C2348.975,1558.974,2392.754,1540.625,2392.754,1540.625z"/>
		<path style="fill:#A9B9EB;" d="M2299.484,1533.684c-5.221,30.491-14.875,60.056-28.653,87.753
			c-42.353,83.631-19.46,166.369-19.46,166.369l-24.496,11.063c0,0-40.357-66.248-2.813-135.485
			C2263.817,1590.258,2299.484,1533.684,2299.484,1533.684z"/>
		<path style="fill:#A9B9EB;" d="M2388.521,1688.531c0,0,23.282-0.006,105.34,41.414c52.576,26.563,43.867-0.017,90.27,34.154
			c-40.79-10.539-64.51,13.563-114.846-8.301c-40.248-17.512-81.806-31.846-124.292-42.867L2388.521,1688.531z"/>
		<path style="fill:#A9B9EB;" d="M2535.385,1803.517c0,0-48.817,30.514-123.123-1.973c-45.778-19.878-94.514-32.093-144.256-36.156
			l36.623-30.253c0,0,39.715-11.728,113.732,29.472C2469.222,1792.9,2535.385,1803.517,2535.385,1803.517z"/>
		<path style="fill:#A9B9EB;" d="M2464.237,1859.854c0,0-48.817,30.514-123.122-1.973c-45.779-19.877-94.515-32.093-144.256-36.156
			l36.622-30.252c0,0,39.716-11.729,113.733,29.471C2398.074,1849.236,2464.237,1859.854,2464.237,1859.854z"/>
		<path style="fill:#A9B9EB;" d="M2638.744,1683.053c0,0-32.145,13.409-78.33-8.886c-46.826-22.632-86.371-24.847-86.371-24.847
			l18.799-9.485c0,0,25.102-7.413,71.896,18.611C2596.923,1676.328,2638.744,1683.053,2638.744,1683.053z"/>
		<path style="fill:#A9B9EB;" d="M2445.031,1665.488c0,0,38.881,9.506,92.317,33.92c33.761,15.3,87.476,10.761,87.476,10.761
			s-53.373,37.204-102.691,11.067c-56.546-29.987-118.354-42.844-118.354-42.844L2445.031,1665.488z"/>
		<path style="fill:#A9B9EB;" d="M2487.154,1644.303c0,0,48.503-37.848,104.283-28.985c33.102,4.974,66.802,4.381,99.709-1.751
			c0,0-46.847,40.205-97.166,26.555c-46.484-12.479-88.45,6.234-88.45,6.234L2487.154,1644.303z"/>
		<path style="fill:#A9B9EB;" d="M2184.259,1845.412l-6.695-6.067c37.431-41.293,184.501-166.42,327.13-204.239l2.314,8.74
			C2366.359,1681.151,2221.229,1804.658,2184.259,1845.412z"/>
	</g>
	<g>
		<path style="fill:#A9B9EB;" d="M2256.24,1594.717c-25.537-34.463-28.969-78.81-10.294-133.037
			C2272.672,1512.455,2276.104,1556.801,2256.24,1594.717z"/>
		<path style="fill:#A9B9EB;" d="M2291.572,1519.721c-18.253-34.58-15.225-75,9.088-121.258
			C2317.766,1447.906,2314.736,1488.326,2291.572,1519.721z"/>
		<path style="fill:#A9B9EB;" d="M2330.393,1445.531c-12.319-35.045-3.828-72.604,25.475-112.678
			C2365.119,1381.695,2356.628,1419.256,2330.393,1445.531z"/>
		<path style="fill:#A9B9EB;" d="M2417.891,1291.369c-0.993,42.019-14.654,71.615-40.985,88.786
			C2372.935,1348.892,2386.597,1319.297,2417.891,1291.369z"/>
		<path style="fill:#A9B9EB;" d="M2473.045,1276.716c-7.057,34.468-22.678,56.813-46.863,67.038
			C2427.504,1317.479,2443.127,1295.134,2473.045,1276.716z"/>
		<path style="fill:#A9B9EB;" d="M2453.596,1346.266c10.623-24.057,33.213-39.34,67.77-45.848
			C2502.418,1330.086,2479.828,1345.368,2453.596,1346.266z"/>
		<path style="fill:#A9B9EB;" d="M2388.939,1544.601c-37.629,43.975-77.965,63.639-121.008,58.992
			C2290.756,1566.932,2331.092,1547.269,2388.939,1544.601z"/>
		<path style="fill:#A9B9EB;" d="M2335.136,1473.328c27.806-21.883,64.33-25.749,109.573-11.596
			C2403.477,1484.971,2366.953,1488.836,2335.136,1473.328z"/>
		<path style="fill:#A9B9EB;" d="M2465.291,1415.441c-35.869,20.259-67.648,23.623-95.336,10.096
			C2394.133,1406.475,2425.91,1403.11,2465.291,1415.441z"/>
		<path style="fill:#A9B9EB;" d="M2414.158,1384.413c24.197-18.993,55.975-22.358,95.334-10.095
			C2473.602,1394.577,2441.822,1397.941,2414.158,1384.413z"/>
		<path style="fill:#A9B9EB;" d="M2239.543,1679.322c26.539-99.122,28.938-90.969,54.797-148.18
			c6.971-15.462,14.344-30.098,22.119-43.907c16.286-28.093,35.572-54.337,57.518-78.272c25.15-28.574,46.77-47.199,64.854-55.873
			l1.754-1.911c0.285-0.722,1.049-1.136,1.81-0.979c0.704-0.296,1.5-0.286,2.198,0.025c0.593,0.536,1.053,1.202,1.343,1.947
			c0.296,0.704,0.286,1.501-0.025,2.198l-0.684,1.49c-0.55,0.585-1.212,1.053-1.947,1.377l-0.005,0.367l-1.639,0.613
			c-17.486,8.857-38.456,27.078-62.908,54.662c-21.557,23.83-40.44,49.947-56.314,77.887c-8.115,13.957-15.506,28.322-22.143,43.041
			l-1.709,3.844c25.23-29.662,63.815-41.83,115.754-36.504c-39.404,34.185-77.988,46.352-115.754,36.504
			c-25.071,56.354-26.729,46.533-52.574,143.176L2239.543,1679.322z"/>
	</g>
	<g>
		<path style="fill:#A9B9EB;" d="M1207.554,1777.381c-40.65,13.695-83.9,3.318-129.753-31.133
			C1134.335,1736.438,1177.587,1746.814,1207.554,1777.381z"/>
		<path style="fill:#A9B9EB;" d="M1147.064,1720.689c-38.518,6.729-76.046-8.586-112.583-45.949
			C1086.79,1673.674,1124.316,1688.991,1147.064,1720.689z"/>
		<path style="fill:#A9B9EB;" d="M1088.415,1660.928c-37.136,0.941-70.261-18.692-99.376-58.902
			C1038.358,1608.248,1071.483,1627.883,1088.415,1660.928z"/>
		<path style="fill:#A9B9EB;" d="M968.647,1530.247c39.676,13.872,63.633,35.978,71.871,66.314
			C1009.549,1590.721,985.592,1568.616,968.647,1530.247z"/>
		<path style="fill:#A9B9EB;" d="M971.671,1473.26c30.625,17.318,47.082,39.057,49.369,65.215
			C996.448,1529.133,979.992,1507.395,971.671,1473.26z"/>
		<path style="fill:#A9B9EB;" d="M1031.866,1513.162c-19.623-17.508-27.215-43.703-22.776-78.587
			C1031.49,1461.73,1039.082,1487.926,1031.866,1513.162z"/>
		<path style="fill:#A9B9EB;" d="M1200.692,1635.7c30.266,49.332,36.567,93.761,18.904,133.288
			C1191.733,1735.992,1185.433,1691.563,1200.692,1635.7z"/>
		<path style="fill:#A9B9EB;" d="M1116.323,1664.967c-12.268-33.189-4.71-69.132,22.675-107.826
			C1148.425,1603.521,1140.867,1639.465,1116.323,1664.967z"/>
		<path style="fill:#A9B9EB;" d="M1101.284,1523.316c8.241,40.361,1.667,71.635-19.724,93.817
			C1070.861,1588.266,1077.436,1556.993,1101.284,1523.316z"/>
		<path style="fill:#A9B9EB;" d="M1056.03,1562.424c-10.629-28.867-4.055-60.14,19.723-93.816
			C1083.988,1508.99,1077.414,1540.263,1056.03,1562.424z"/>
		<path style="fill:#A9B9EB;" d="M1282.917,1819.296c-86.149-55.746-77.654-55.521-124.134-97.724
			c-12.568-11.391-24.225-22.91-34.974-34.555c-21.721-24.141-40.758-50.563-56.781-78.809
			c-19.452-32.723-30.523-59.021-33.212-78.896l-1.279-2.258c-0.6-0.493-0.757-1.347-0.374-2.022
			c-0.065-0.761,0.188-1.516,0.7-2.083c0.692-0.4,1.468-0.633,2.265-0.68c0.762-0.065,1.516,0.189,2.084,0.701l1.208,1.108
			c0.387,0.703,0.629,1.478,0.71,2.276l0.347,0.117l0.08,1.748c3.049,19.363,13.935,44.922,32.659,76.674
			c16.042,27.842,35.083,53.846,56.784,77.543c10.783,12.017,22.179,23.469,34.142,34.312l3.131,2.809
			c-20.461-33.132-20.169-73.589,0.877-121.37c20.404,48.009,20.112,88.467-0.877,121.37
			c45.907,41.191,36.053,39.748,120.058,94.071L1282.917,1819.296z"/>
	</g>
	<g>
		<path style="fill:#A9B9EB;" d="M1653.455,1459.497c0,0,7.928,33.274-31.646,77.575c-40.336,45.131-45.716,82.961-45.716,82.961
			l-29.138,13.469c0,0,10.949-56.756,45.088-91.482C1634.826,1498.605,1653.455,1459.497,1653.455,1459.497z"/>
		<path style="fill:#A9B9EB;" d="M1718.703,1495.027c0,0-2.371,25.101-40.217,50.424c-38.635,25.754-51.197,52.029-51.197,52.029
			l-23.989,10.209c0,0,21.503-44.17,53.394-63.5C1696.545,1519.984,1718.703,1495.027,1718.703,1495.027z"/>
		<path style="fill:#A9B9EB;" d="M1587.045,1499.996c0,0-25.564,8.885-56.039,65.288c-24.842,45.96-20.824,74.783-36.231,102.896
			l39.442-24.204c7.816-20.816-1.956-38.72,18.552-81.487C1571.955,1522.441,1587.045,1499.996,1587.045,1499.996z"/>
		<path style="fill:#A9B9EB;" d="M1344.147,1628.133c0,0-16.299,21.701-10.131,85.455c5.005,52.012,27.739,65.117,29.425,77.263
			l17.179-20.735c-7.892-22.084-23.281-24.012-30.107-70.949C1344.152,1655.129,1344.147,1628.133,1344.147,1628.133z"/>
		<path style="fill:#A9B9EB;" d="M1526.609,1523.598c0,0-26.635,38.385-37.604,64.548c-15.664,37.163-6.236,62.062-19.507,101.173
			l-28.528,19.842c0,0-7.049-46.926,14.113-92.01C1490.588,1541.493,1526.609,1523.598,1526.609,1523.598z"/>
		<path style="fill:#A9B9EB;" d="M1447.364,1522.799c-2.757,26.068-9.311,51.592-19.457,75.762
			c-31.267,73.019-7.41,141.736-7.41,141.736l-20.112,10.687c0,0-37.727-53.825-9.745-114.411
			C1420.281,1572.576,1447.364,1522.799,1447.364,1522.799z"/>
		<path style="fill:#A9B9EB;" d="M1531.072,1648.895c0,0,19.686-1.271,91.324,29.293c45.902,19.601,37.093-2.399,78.188,23.973
			c-35.064-6.693-53.81,14.976-97.563-0.776c-34.985-12.621-70.904-22.48-107.429-29.49L1531.072,1648.895z"/>
		<path style="fill:#A9B9EB;" d="M1661.508,1738.142c0,0-39.62,28.455-104.218,5.024c-39.79-14.318-81.664-21.998-123.946-22.73
			l29.323-27.572c0,0,32.944-12.075,97.772,18.738C1604.984,1732.76,1661.508,1738.142,1661.508,1738.142z"/>
		<path style="fill:#A9B9EB;" d="M1604.41,1789.646c0,0-39.621,28.455-104.219,5.025c-39.79-14.32-81.664-22-123.946-22.732
			l29.323-27.571c0,0,32.945-12.075,97.773,18.737C1547.887,1784.266,1604.41,1789.646,1604.41,1789.646z"/>
		<path style="fill:#A9B9EB;" d="M1742.358,1630.659c0,0-26.451,13.086-66.717-3.255c-40.826-16.592-74.385-16.314-74.385-16.314
			l15.38-9.043c0,0,20.823-7.634,61.806,11.828C1706.629,1627.247,1742.358,1630.659,1742.358,1630.659z"/>
		<path style="fill:#A9B9EB;" d="M1577.604,1626.338c0,0,33.392,5.924,79.905,23.664c29.38,11.102,74.554,4.343,74.554,4.343
			s-43.109,34.36-86.234,14.942c-49.443-22.283-102.406-29.795-102.406-29.795L1577.604,1626.338z"/>
		<path style="fill:#A9B9EB;" d="M1612.069,1606.134c0,0,38.956-34.64,86.604-30.179c28.26,2.405,56.725,0.072,84.217-6.9
			c0,0-37.428,36.543-80.719,27.734c-39.984-8.023-74.453,10.082-74.453,10.082L1612.069,1606.134z"/>
		<path style="fill:#A9B9EB;" d="M1366.879,1792.656l-5.991-4.768c29.405-36.951,146.963-150.752,265.512-190.484l2.432,7.264
			C1511.93,1643.859,1395.925,1756.184,1366.879,1792.656z"/>
	</g>
	<g>
		<path style="fill:#A9B9EB;" d="M217.901,1465.471c0,0-11.014,34.549,27.318,84.517c39.071,50.907,41.764,91.328,41.764,91.328
			l29.74,16.547c0,0-7.083-60.871-40.427-100.287C234.501,1508.291,217.901,1465.471,217.901,1465.471z"/>
		<path style="fill:#A9B9EB;" d="M146.107,1497.867c0,0,0.52,26.725,38.528,56.494c38.806,30.284,50.008,59.06,50.008,59.06
			l24.554,12.69c0,0-19.237-48.399-51.422-71.359C167.557,1526.008,146.107,1497.867,146.107,1497.867z"/>
		<path style="fill:#A9B9EB;" d="M284.907,1513.543c0,0,26.323,11.416,54.078,73.461c22.625,50.557,16.097,80.711,30.16,111.651
			l-39.783-28.712c-6.615-22.626,5.133-40.78-13.163-87.619C299.083,1538.466,284.907,1513.543,284.907,1513.543z"/>
		<path style="fill:#A9B9EB;" d="M531.563,1668.239c0,0,15.514,24.233,3.946,91.147c-9.409,54.592-34.482,66.648-37.225,79.355
			l-16.521-23.281c10.092-22.723,26.514-23.543,37.446-72.627C529.42,1696.781,531.563,1668.239,531.563,1668.239z"/>
		<path style="fill:#A9B9EB;" d="M346.932,1543.278c0,0,25.121,42.69,34.647,71.219c13.617,40.53,1.68,66.108,12.614,108.507
			l28.59,23.236c0,0,11.167-49.055-7.637-98.393C383.599,1565.05,346.932,1543.278,346.932,1543.278z"/>
		<path style="fill:#A9B9EB;" d="M430.776,1548.708c0.851,27.777,5.761,55.28,14.573,81.636
			c27.276,79.674-3.385,150.436-3.385,150.436l20.417,12.89c0,0,44.147-53.918,19.359-120.189
			C455.469,1603.478,430.776,1548.708,430.776,1548.708z"/>
		<path style="fill:#A9B9EB;" d="M332.296,1675.394c0,0-20.712-2.902-98.869,23.739c-50.081,17.092-39.026-5.473-84.56,19.156
			c37.601-4.301,55.705,20.092,103.208,6.902c37.986-10.573,76.742-18.154,115.912-22.674L332.296,1675.394z"/>
		<path style="fill:#A9B9EB;" d="M187.332,1759.422c0,0,39.635,33.221,109.784,13.563c43.201-11.988,88.079-16.793,132.838-14.221
			l-28.818-31.471c0,0-33.875-15.375-104.852,12.07C247.516,1758.207,187.332,1759.422,187.332,1759.422z"/>
		<path style="fill:#A9B9EB;" d="M243.62,1818.395c0,0,39.635,33.221,109.785,13.563c43.201-11.99,88.079-16.793,132.838-14.221
			l-28.819-31.471c0,0-33.874-15.375-104.851,12.07C303.805,1817.18,243.62,1818.395,243.62,1818.395z"/>
		<path style="fill:#A9B9EB;" d="M110.363,1639.389c0,0,26.929,15.929,70.793,1.84c44.475-14.31,79.933-11.359,79.933-11.359
			l-15.545-10.777c0,0-21.41-9.719-66.279,7.613C148.407,1638.609,110.363,1639.389,110.363,1639.389z"/>
		<path style="fill:#A9B9EB;" d="M284.888,1647.861c0,0-35.773,3.621-86.352,18.693c-31.939,9.411-79.164-1.309-79.164-1.309
			s42.857,39.739,89.986,22.623c54.038-19.643,110.626-23.393,110.626-23.393L284.888,1647.861z"/>
		<path style="fill:#A9B9EB;" d="M250.048,1623.773c0,0-38.443-39.706-89.171-38.762c-30.069,0.307-59.977-4.413-88.491-13.963
			c0,0,36.676,41.6,83.142,35.713c42.909-5.318,77.916,16.553,77.916,16.553L250.048,1623.773z"/>
		<path style="fill:#A9B9EB;" d="M494.505,1840.379l6.712-4.566c-28.164-41.394-143.441-171.013-265.629-222.403l-3.147,7.486
			C352.933,1671.585,466.685,1799.521,494.505,1840.379z"/>
	</g>
	<g>
		<path style="fill:#FFFFFF;" d="M887.48,345.833c8.95-6.762,19.69-10.145,32.221-10.145c27.049,0,41.37,14.719,41.37,35.404
			c0,11.934-5.768,24.065-17.503,36.198c-14.917,15.712-25.657,23.469-32.419,23.469c-6.563,0-11.337-5.171-11.337-11.337
			c0-5.569,5.171-11.138,14.121-19.293c0.597-0.596,1.193-1.193,1.591-1.392c10.143-9.348,13.326-14.519,13.326-20.884
			c0-7.956-5.37-12.331-13.127-12.331c-3.58,0-7.757,0.796-12.729,2.387c-4.972,1.59-8.552,2.386-10.74,2.386
			c-5.569,0-11.934-4.773-11.934-12.729C880.319,353.391,882.707,349.414,887.48,345.833z M914.729,478.495
			c-12.132,0-20.287-9.149-20.287-20.288c0-9.546,8.155-18.696,20.287-18.696c10.541,0,18.696,9.149,18.696,18.696
			C933.424,469.146,925.667,478.495,914.729,478.495z"/>
	</g>
	<g>
		<path style="fill:#FFFFFF;" d="M2246.846,874.451c7.015-5.301,15.433-7.95,25.254-7.95c21.201,0,32.424,11.536,32.424,27.747
			c0,9.354-4.52,18.864-13.717,28.373c-11.692,12.315-20.11,18.394-25.41,18.394c-5.145,0-8.887-4.053-8.887-8.886
			c0-4.365,4.054-8.729,11.068-15.121c0.467-0.468,0.936-0.936,1.248-1.091c7.949-7.327,10.443-11.38,10.443-16.368
			c0-6.235-4.209-9.665-10.288-9.665c-2.806,0-6.079,0.624-9.978,1.87c-3.896,1.247-6.703,1.871-8.418,1.871
			c-4.364,0-9.353-3.741-9.353-9.977C2241.233,880.375,2243.104,877.257,2246.846,874.451z M2268.202,978.428
			c-9.509,0-15.901-7.17-15.901-15.9c0-7.483,6.393-14.653,15.901-14.653c8.263,0,14.653,7.17,14.653,14.653
			C2282.855,971.102,2276.775,978.428,2268.202,978.428z"/>
	</g>
	<g>
		<g>
			<path style="fill:#CDD8FA;" d="M1907.89,990.767h-324.927c-5.744,0-10.4-4.658-10.4-10.402V700.671
				c0-5.745,4.656-10.402,10.4-10.402c5.746,0,10.402,4.657,10.402,10.402v269.292h314.524c5.745,0,10.401,4.657,10.401,10.401
				C1918.291,986.109,1913.635,990.767,1907.89,990.767z"/>
		</g>
		<g>
			<g>
				<path style="fill:#F5A3B7;" d="M1607.561,922.397c-2.603,0-5.209-0.97-7.228-2.922c-4.131-3.993-4.242-10.579-0.25-14.708
					l105.016-108.632c3.459-3.578,8.966-4.205,13.14-1.497l49.661,32.212l52.366-60.847c3.747-4.354,10.315-4.845,14.669-1.099
					c4.354,3.747,4.846,10.315,1.099,14.668l-58.29,67.732c-3.395,3.942-9.18,4.772-13.545,1.94l-50.096-32.494l-99.063,102.475
					C1612.999,921.336,1610.281,922.397,1607.561,922.397z"/>
			</g>
			<g>
				<g>
					<polygon style="fill:#F5A3B7;" points="1836.26,810.603 1821.442,780.579 1789.547,770.401 1860.553,735.134 					"/>
				</g>
			</g>
		</g>
	</g>
	<g>
		<path style="fill:#FFFFFF;" d="M664.979,493.91c-31.613,0-57.333-25.721-57.333-57.333c0-31.613,25.72-57.332,57.333-57.332
			c31.614,0,57.333,25.719,57.333,57.332C722.312,468.189,696.592,493.91,664.979,493.91z M664.979,395.035
			c-22.906,0-41.542,18.635-41.542,41.542c0,22.906,18.636,41.542,41.542,41.542c22.906,0,41.542-18.636,41.542-41.542
			C706.521,413.67,687.885,395.035,664.979,395.035z"/>
	</g>
	<g>
		<path style="fill:#FFFFFF;" d="M2539.565,1186.312c-27.341,0-49.585-22.243-49.585-49.585c0-27.342,22.244-49.584,49.585-49.584
			s49.585,22.242,49.585,49.584C2589.15,1164.068,2566.906,1186.312,2539.565,1186.312z M2539.565,1100.799
			c-19.812,0-35.928,16.117-35.928,35.928c0,19.811,16.116,35.928,35.928,35.928s35.928-16.117,35.928-35.928
			C2575.493,1116.916,2559.377,1100.799,2539.565,1100.799z"/>
	</g>
	<g>
		<path style="fill:#FFFFFF;" d="M209.483,1180.436c-20.791,0-37.706-16.914-37.706-37.706c0-20.792,16.915-37.706,37.706-37.706
			c20.791,0,37.706,16.914,37.706,37.706C247.189,1163.521,230.275,1180.436,209.483,1180.436z M209.483,1115.408
			c-15.064,0-27.321,12.257-27.321,27.321c0,15.065,12.256,27.321,27.321,27.321c15.065,0,27.321-12.256,27.321-27.321
			C236.805,1127.665,224.548,1115.408,209.483,1115.408z"/>
	</g>
	<g>
		<path style="fill:#E3EAFF;" d="M2447.326,888.286c-14.417,0-26.146-11.729-26.146-26.145c0-14.416,11.729-26.146,26.146-26.146
			c14.416,0,26.145,11.729,26.145,26.146C2473.471,876.557,2461.742,888.286,2447.326,888.286z M2447.326,843.196
			c-10.447,0-18.945,8.498-18.945,18.944c0,10.445,8.498,18.943,18.945,18.943c10.445,0,18.943-8.498,18.943-18.943
			C2466.27,851.694,2457.771,843.196,2447.326,843.196z"/>
	</g>
	
		<ellipse transform="matrix(0.9239 -0.3827 0.3827 0.9239 -240.4973 203.9135)" style="fill:#E3EAFF;" cx="392.322" cy="706.487" rx="40.336" ry="40.336"/>
	<path style="fill:#E3EAFF;" d="M1684.749,295.138c0,22.277-18.06,40.337-40.336,40.337c-22.276,0-40.336-18.06-40.336-40.337
		c0-22.276,18.06-40.336,40.336-40.336C1666.689,254.802,1684.749,272.862,1684.749,295.138z"/>
	<path style="fill:#FFFFFF;" d="M2014.654,716.291c0,14.37-11.648,26.018-26.017,26.018c-14.37,0-26.019-11.648-26.019-26.018
		c0-14.369,11.648-26.019,26.019-26.019C2003.006,690.272,2014.654,701.921,2014.654,716.291z"/>
	<path style="fill:#FFFFFF;" d="M2623.547,1253.326c0,14.368-11.648,26.018-26.018,26.018s-26.019-11.649-26.019-26.018
		c0-14.37,11.649-26.019,26.019-26.019S2623.547,1238.956,2623.547,1253.326z"/>
	<path style="fill:#E3EAFF;" d="M2455.244,782.382c0,22.278-18.059,40.336-40.335,40.336c-22.277,0-40.337-18.058-40.337-40.336
		c0-22.277,18.06-40.336,40.337-40.336C2437.186,742.046,2455.244,760.105,2455.244,782.382z"/>
	<path style="fill:#FFFFFF;" d="M793.511,345.337c0,18.078-14.655,32.733-32.732,32.733c-18.078,0-32.732-14.655-32.732-32.733
		c0-18.076,14.655-32.732,32.732-32.732C778.857,312.605,793.511,327.261,793.511,345.337z"/>
	<path style="fill:#FFFFFF;" d="M1079.864,1057.163c0,18.077-14.655,32.733-32.732,32.733c-18.078,0-32.733-14.655-32.733-32.733
		c0-18.078,14.655-32.733,32.733-32.733C1065.208,1024.43,1079.864,1039.085,1079.864,1057.163z"/>
	<ellipse style="fill:#95A6DB;" cx="1407.148" cy="1859.683" rx="1101.058" ry="90.425"/>
	<g>
		<polygon style="fill:#617AC9;" points="834.653,1867.945 796.391,1867.747 897.026,1415.881 933.618,1423.582 		"/>
		<polygon style="fill:#617AC9;" points="1762.467,1867.945 1800.729,1867.747 1700.094,1415.881 1663.502,1423.582 		"/>
		<path style="fill:#0E6A41;" d="M1529.336,1794.702L1529.336,1794.702c-7.438,0-13.467-6.029-13.467-13.467v-241.671h26.934
			v241.671C1542.803,1788.673,1536.774,1794.702,1529.336,1794.702z"/>
		<path style="fill:#0E6A41;" d="M1204.835,1794.702L1204.835,1794.702c-7.438,0-13.467-6.029-13.467-13.467v-241.671h26.934
			v241.671C1218.302,1788.673,1212.272,1794.702,1204.835,1794.702z"/>
		<path style="fill:#3F964F;" d="M1544.531,1540.048h-360.504c-11.996,0-21.721-9.725-21.721-21.721v-4.093
			c0-11.996,9.725-21.721,21.721-21.721h360.504c11.996,0,21.721,9.725,21.721,21.721v4.093
			C1566.252,1530.323,1556.527,1540.048,1544.531,1540.048z"/>
		<g>
			<path style="fill:#201D40;" d="M1486.075,1094.451c24.628,7.191,119.447,108.887,142.15,184.135
				c-12.296,67.665-119.718,102.799-119.718,102.799l-1.793-52.434c0,0,35.273-23.485,51.408-50.365
				c-25.697-18.527-76.337-80.863-76.337-80.863L1486.075,1094.451z"/>
			<path style="fill:#201D40;" d="M1249.512,1094.451c-24.628,7.191-85.699,104.94-110.732,193.313
				c-65.509,42.635-116.868,89.428-116.868,89.428l60.835,4.012c0,0,79.821-19.673,122.087-65.542
				c17.613-35.898,48.966-117.938,48.966-117.938L1249.512,1094.451z"/>
			<polygon style="fill:#95A6DB;" points="1407.841,1075.644 1324.968,1079.323 1316.611,1160.41 1325.643,1391.799 
				1413.038,1390.708 1435.881,1131.68 			"/>
			<path style="fill:#2C2858;" d="M1309.288,953.128c11.541-13.264,20.644-0.396,37.097-16.817
				c16.453-16.422,29.662-28.24,43.749-10.914c14.087,17.327,21.339,19.759,31.589,18.768c10.25-0.992,10.192,41.171,10.192,41.171
				s25.07-6.612,27.066-34.692c2.353-33.104-12.981-28.135-21.286-54.579c-8.305-26.443-40.37-41.365-55.044-35.014
				c-15.47,6.695-23.589,14.058-46.119,8.584c-22.53-5.472-41.937,1.158-41.899,30.369c0.038,29.21-34.313,20.494-23.317,56.97
				c4.265,14.149,16.221,27.172,21.773,26.038C1300.525,981.491,1301.848,961.678,1309.288,953.128z"/>
			<g>
				<path style="fill:#F37A50;" d="M1425.563,981.334c-5.525,10.656-3.95,23.836,3.518,29.438c7.467,5.602,18,1.504,23.525-9.15
					c5.525-10.657,3.95-23.837-3.518-29.438C1441.621,966.581,1431.088,970.678,1425.563,981.334z"/>
				<g>
					<path style="fill:#DE623C;" d="M1435.539,1005.512c0.199,0.018,0.406-0.001,0.613-0.059c1.133-0.316,1.871-1.688,1.652-3.063
						c-1.104-6.905-0.522-12.003,1.682-14.742c2.973-3.694,8.252-2.59,8.305-2.578c1.126,0.245,2.235-0.675,2.48-2.059
						c0.243-1.384-0.465-2.71-1.587-2.965c-0.304-0.069-7.496-1.627-12.098,4.053c-3.317,4.096-4.287,10.635-2.88,19.437
						C1433.886,1004.659,1434.649,1005.438,1435.539,1005.512z"/>
				</g>
			</g>
			<polygon style="fill:#DE623C;" points="1338.535,1096.05 1367.368,1118.859 1396.634,1096.05 1400.509,1040.32 1334.66,1040.32 
							"/>
			<g>
				<path style="fill:#2C2858;" d="M1248.6,1094.451l1.501,297.348c28.215,23.16,83.518,29.488,83.518,29.488l-10.055-336.557
					L1248.6,1094.451z"/>
				<path style="fill:#2C2858;" d="M1488.623,1094.451l-1.502,297.348c-28.215,23.16-80.98,30.121-80.98,30.121l7.517-337.19
					L1488.623,1094.451z"/>
			</g>
			<polygon style="fill:#494C7F;" points="1283.058,1132.395 1330.691,1337.908 1323.46,1081.1 			"/>
			<polygon style="fill:#494C7F;" points="1456.672,1118.162 1407.841,1340.262 1413.658,1084.73 			"/>
			<path style="fill:#F37A50;" d="M1366.396,897.304c-84.985-2.002-65.584,112.473-59.381,130.46
				c3.382,9.807,24.941,47.425,59.613,47.958c34.673-0.533,55.767-38.151,59.149-47.958
				C1431.98,1009.777,1454.321,898.643,1366.396,897.304z"/>
			<g>
				<path style="fill:#2C2858;" d="M1351.51,978.895c0.859-0.459,1.549-1.237,1.878-2.234c0.678-2.06-0.442-4.279-2.502-4.956
					c-0.62-0.205-15.338-4.886-28.724,4.723c-1.761,1.265-2.164,3.718-0.9,5.479c1.265,1.761,3.716,2.166,5.479,0.9
					c10.179-7.308,21.577-3.682,21.691-3.644C1349.493,979.512,1350.597,979.384,1351.51,978.895z"/>
			</g>
			<g>
				<path style="fill:#2C2858;" d="M1389.149,978.895c-0.859-0.459-1.55-1.237-1.879-2.234c-0.678-2.06,0.443-4.279,2.502-4.956
					c0.62-0.205,15.337-4.886,28.723,4.723c1.762,1.265,2.165,3.718,0.9,5.479c-1.264,1.761-3.716,2.166-5.479,0.9
					c-10.18-7.308-21.577-3.682-21.691-3.644C1391.166,979.512,1390.062,979.384,1389.149,978.895z"/>
			</g>
			<path d="M1404.93,991.477c0,3.828-3.101,6.931-6.93,6.931c-3.828,0-6.931-3.103-6.931-6.931c0-3.827,3.103-6.929,6.931-6.929
				C1401.828,984.547,1404.93,987.649,1404.93,991.477z"/>
			<path d="M1346.992,990.474c0,3.828-3.103,6.93-6.93,6.93c-3.828,0-6.931-3.102-6.931-6.93c0-3.828,3.103-6.93,6.931-6.93
				C1343.89,983.543,1346.992,986.646,1346.992,990.474z"/>
			<path style="fill:#DE623C;" d="M1370.811,995.798c4.265,9.55,9.729,21.241,9.729,21.241s-4.508,8.816-16.748,7.24
				c5.473-1.416,11.074-4.184,9.928-11.375C1372.571,1005.713,1370.811,995.798,1370.811,995.798z"/>
			<g>
				<polygon style="fill:#201D40;" points="1374.935,1140.174 1389.467,1335.359 1367.671,1361.088 1345.876,1335.359 
					1360.739,1140.677 				"/>
				<polygon style="fill:#201D40;" points="1382.904,1119.201 1368.408,1115.395 1353.585,1119.851 1360.726,1141.041 
					1374.981,1140.791 				"/>
				<path style="fill:#FFFFFF;" d="M1367.671,1115.433c0,0-9.598,14.059-26.641,22.022l-28.578-43.373l12.515-14.759
					L1367.671,1115.433z"/>
				<path style="fill:#FFFFFF;" d="M1367.671,1115.433c0,0,13.896,16.21,27.397,21.073l25.879-46.823l-12.188-14.039
					L1367.671,1115.433z"/>
			</g>
			<path style="fill:#2C2858;" d="M1299.181,973.747c9.598,3.199,12.71-49.393,50.045-24.502
				c26.284,17.523,75.248,14.748,65.453-9.015c7.854,5.817,19.274,17.394,19.274,17.394l-17.27-57.17
				c0,0-71.258-22.395-96.562,0.291C1294.818,923.43,1299.181,973.747,1299.181,973.747z"/>
			<g>
				<path style="fill:#F37A50;" d="M1313.988,983.409c5.65,11.086,2.358,24.084-7.354,29.034
					c-9.712,4.951-22.166-0.021-27.816-11.107c-5.649-11.085-2.357-24.084,7.354-29.034
					C1295.884,967.351,1308.337,972.324,1313.988,983.409z"/>
				<g>
					<path style="fill:#DE623C;" d="M1299.282,1006.658c-0.247,0-0.497-0.037-0.745-0.111c-1.351-0.412-2.113-1.84-1.702-3.191
						c2.066-6.787,1.883-11.916-0.528-14.83c-3.252-3.933-9.822-3.279-9.888-3.272c-1.401,0.15-2.663-0.861-2.818-2.261
						c-0.155-1.4,0.848-2.661,2.247-2.82c0.379-0.043,9.334-0.987,14.372,5.062c3.632,4.362,4.138,10.959,1.506,19.611
						C1301.392,1005.947,1300.378,1006.658,1299.282,1006.658z"/>
				</g>
			</g>
			<g>
				<path style="fill:#DE623C;" d="M1370.287,1046.869c-12.117,0-22.521-6.593-23.275-7.33c-1.248-1.224-1.269-3.228-0.046-4.476
					c1.139-1.164,2.955-1.258,4.207-0.28c0.914,0.587,22.074,13.575,35.952-1.696c1.175-1.292,3.176-1.388,4.47-0.213
					c1.293,1.176,1.389,3.177,0.213,4.471c-5.523,6.076-12.444,9.277-20.569,9.512
					C1370.921,1046.865,1370.603,1046.869,1370.287,1046.869z"/>
			</g>
			<polygon style="fill:#201D40;" points="1529.336,1441.434 1470.35,1387.074 1275.491,1387.074 1204.814,1441.082 
				1284.631,1498.896 1461.358,1498.896 			"/>
			<g id="c_1099_">
				<path d="M1255.681,1756.313c-18.057,39.115-83.512,32.566-71.971,76.02c11.541,43.455,131.136-25.856,131.136-25.856
					c-2.218-10.608-9.026-35.484-13.11-44.941L1255.681,1756.313z"/>
				<path d="M1481.233,1754.343c18.846,40.821,87.154,33.985,75.109,79.335c-12.043,45.349-136.854-26.984-136.854-26.984
					c2.316-11.07,9.42-37.03,13.682-46.901L1481.233,1754.343z"/>
				<path id="c_1103_" style="fill:#2C2858;" d="M1310.698,1519.349c-0.439-62.476-53.18-131.882-105.863-85.327
					c-55.248,48.823,34.004,326.143,34.004,326.143c32.854,19.623,48.558,18.977,82.524,0
					C1321.363,1760.164,1311.122,1579.646,1310.698,1519.349z"/>
				<path id="c_1102_" style="fill:#2C2858;" d="M1435.244,1519.349c0.439-62.476,52.48-105.663,94.092-77.915
					c45.049,30.041-28.675,325.102-28.675,325.102c-12.739,6.127-49.892,10.093-75.778,2.723
					C1424.883,1769.258,1434.82,1579.646,1435.244,1519.349z"/>
			</g>
		</g>
		<g>
			<g id="с_6_">
				<path id="с_15_" style="fill:#0E6A41;" d="M1905.383,1867.945L1905.383,1867.945c-7.438,0-13.467-6.03-13.467-13.467v-238.604
					h26.933v238.604C1918.85,1861.915,1912.82,1867.945,1905.383,1867.945z"/>
				<path id="с_14_" style="fill:#0E6A41;" d="M1999.879,1867.945L1999.879,1867.945c-7.437,0-13.467-6.03-13.467-13.467v-238.604
					h26.935v238.604C2013.347,1861.915,2007.317,1867.945,1999.879,1867.945z"/>
				<path id="с_13_" style="fill:#0E6A41;" d="M2123.875,1867.945L2123.875,1867.945c-7.438,0-13.467-6.03-13.467-13.467v-238.604
					h26.934v238.604C2137.342,1861.915,2131.313,1867.945,2123.875,1867.945z"/>
				<path id="с_12_" style="fill:#0E6A41;" d="M2218.371,1867.945L2218.371,1867.945c-7.438,0-13.467-6.03-13.467-13.467v-238.604
					h26.934v238.604C2231.838,1861.915,2225.809,1867.945,2218.371,1867.945z"/>
				<path id="с_11_" style="fill:#3F964F;" d="M2069.367,1261.766v283.939c0,3.231-2.619,5.85-5.85,5.85H1887.47
					c-17.761,0-32.16,14.399-32.16,32.16l0,0c0,17.762,14.399,32.16,32.16,32.16h181.897h32.162c17.762,0,32.16-14.399,32.16-32.16
					v-32.16v-289.789c0-17.762-14.398-32.16-32.16-32.16h-0.001C2083.767,1229.605,2069.367,1244.004,2069.367,1261.766z"/>
				<rect id="с_10_" x="2101.528" y="1229.605" style="fill:#3F964F;" width="139.19" height="327.164"/>
				<path id="с_9_" style="fill:#0E6A41;" d="M2208.558,1261.766v283.939c0,3.231-2.619,5.85-5.851,5.85H2026.66
					c-17.762,0-32.161,14.399-32.161,32.16l0,0c0,17.762,14.399,32.16,32.161,32.16h181.897h32.161
					c17.762,0,32.16-14.399,32.16-32.16v-32.16v-289.789c0-17.762-14.398-32.16-32.16-32.16h-0.001
					C2222.956,1229.605,2208.558,1244.004,2208.558,1261.766z"/>
			</g>
			<g>
				<g>
					<path style="fill:#F37A50;" d="M1929.48,1325.541c13.371,7.443,13.516,53.775,8.908,56.498
						c-154.188,10.721-193.08,5.094-193.08,5.094l1.941-26.242C1747.249,1360.891,1836.187,1332.857,1929.48,1325.541z"/>
					<path style="fill:#F37A50;" d="M2074.69,1240.798c-23.682,37.872-122.132,140.343-138.22,141.795l-18.18-55.864
						c0,0,92.322-122.164,108.715-140.992C2055.316,1153.063,2113.471,1179.043,2074.69,1240.798z"/>
					<g>
						<g>
							<g>
								<g>
									<path style="fill:#F37A50;" d="M1718.926,1357.168c8.584,0.229,17.694,0.933,29.931,3.044l8.933,4.663l-0.947,15.174
										c-12.851,17.634-51.316,20.491-54.838,20.491c-9.149,0.001-13.447,0.565-14.049-0.71
										c-0.604-1.275-2.117-9.555,11.195-9.979c16.707-0.534,6.893-14.714-27.753-5.079c-8.675,2.414-24.121-3.063-17.865-8.697
										C1660.426,1369.863,1679.868,1356.126,1718.926,1357.168z"/>
								</g>
							</g>
						</g>
					</g>
				</g>
				<path style="fill:#0D0C1A;" d="M2018.041,1038.443c-2.848-38.774,8.361-73.028,39.277-90.473
					c31.336-17.682,70.592-0.34,70.592-0.34l0,0c0.004-0.001,33.229-11.821,63.34,21.349c30.113,33.171,7.336,62.361,19.654,86.552
					c7.296,14.326,44.391,17.28,34.809,63.944c-2.764,13.458-18.949,22.516-32.658,23.417c-24.088,1.582-46.518-7.729-56.281,1.582
					c-32.175,30.684-103.477,19.586-113.455-8.48c-3.094-8.703-67.232,8.139-60.833-51.137
					C1985.728,1054.82,2020.586,1073.09,2018.041,1038.443z"/>
				<g>
					<g>
						<g>
							<polygon style="fill:#F37A50;" points="2076.814,1163.783 2127.735,1154.383 2146.83,1179.787 2106.248,1262.99 
								2046.559,1212.326 							"/>
						</g>
					</g>
				</g>
				<g>
					<g>
						<g>
							<path style="fill:#E62552;" d="M2010.806,1364.392c0.87-15.83-24.714-80.841-11.247-113.563
								c9.809-26.321,26.193-70.509,46.26-77.882c9.468-3.478,19.197-5.902,30.996-9.164c0,0-6.656,33.17,7.21,34.281
								c26.694,2.143,43.711-43.682,43.711-43.682c14.392-1.375,80.409,20.316,80.378,25.738
								c-0.156,42.459-34.652,104.409-45.934,150.316c-4.438,49.58,12.859,108.912,12.922,114.553c0,0-106.202,29.855-169.156-4.803
								C2004.629,1435.361,2009.604,1386.252,2010.806,1364.392z"/>
						</g>
					</g>
				</g>
				<path style="fill:#E62552;" d="M2159.126,1394.047c0,0,23.445,59.151,29.163,96.387c5.717,37.234-26.55,61.125-26.55,61.125
					H1893.41c0,0-28.727-46.586-20.452-78.756c8.275-32.168,27.306-37.283,27.306-37.283L2159.126,1394.047z"/>
				<path style="fill:#DE623C;" d="M1889.816,1433.871c34.258-4.832,133.684,33.785,176.079,117.688h-118.604L1889.816,1433.871z"/>
				<g>
					<path style="fill:#DE623C;" d="M1927.386,1464.754c-4.429-4.848-8.447-10.82-11.985-17.055
						c-9.998-17.615-34.099-20.592-47.707-5.588c-49.452,54.522-154.877,178.817-178.379,194.285
						c-6.64,4.369-45.387,26.679-82.221,22.268c0,0-18.182,6.922-6.068,21.361c6.233,7.43,99.841,15.107,99.841,15.107l7.296-27.486
						c54.49-40.328,122.322-37.428,179.838-111.156C1919.672,1515.889,1927.386,1464.754,1927.386,1464.754z"/>
					<path style="fill:#201D40;" d="M1681.906,1710.99l-37.668,24.449l-5.178-6.172l30.554-28.494
						c-17.356-13.693-57.557-2.266-57.557-2.266c-13.167-8.506-38.835-36.091-41.482-50.871c8.432-10.508,36.51,11.105,36.51,11.105
						c-1.031,4.682,7.841,20.896,14.897,23.666c30.67,6.618,61.237-2.096,86.179-14.762
						C1708.162,1667.646,1729.004,1699.23,1681.906,1710.99z"/>
				</g>
				<g>
					<path style="fill:#F37A50;" d="M1927.935,1472.158c6.86,1.846,11.978,7.593,12.97,14.627
						c2.682,19.028,16.537,57.568-2.207,97.925c-46.018,99.078-73.188,164.36-78.014,189.931
						c12.02,22.511-35.91,84.005-36.624,88.031l-34.498-10.797c0,0,19.796-29.446,26.921-40.975
						c16.973-27.457,19.748-61.148,22.508-87.265c11.775-111.493-8.473-181.889,72.2-247.292
						C1915.961,1472.476,1922.002,1470.563,1927.935,1472.158z"/>
					<path style="fill:#201D40;" d="M1877.869,1821.8l-3.4,44.778l-8.047,0.375l-4.131-41.574
						c-21.412,5.498-36.703,44.392-36.703,44.392c-14.746,5.313-52.246,8.996-65.604,2.139c-3.241-13.076,30.97-22.299,30.97-22.299
						c3.098,3.66,21.371,6.438,27.852,2.506c23.86-20.375,36.825-49.966,41.878-77.476
						C1860.684,1774.641,1897.078,1777.218,1877.869,1821.8z"/>
				</g>
				<g>
					<g>
						<g>
							<path style="fill:#F37A50;" d="M2089.682,1122.195l41.348-6.193l-3.294,38.381c0,0-7.914,17.389-17.095,18.564l-33.826-9.164
								L2089.682,1122.195z"/>
						</g>
					</g>
				</g>
				<g>
					<path style="fill:#F37A50;" d="M2169.286,1066.703c-10.675,44.579-47.711,73.922-82.724,65.539
						c-35.014-8.385-54.744-51.32-44.069-95.9c10.675-44.579,47.711-73.922,82.724-65.538
						C2160.23,979.187,2179.961,1022.123,2169.286,1066.703z"/>
					<path d="M2058.901,1048.053c-1.542,3.096-5.301,4.354-8.396,2.813c-3.096-1.541-4.355-5.301-2.813-8.395
						c1.542-3.096,5.301-4.355,8.396-2.814C2059.184,1041.198,2060.442,1044.957,2058.901,1048.053z"/>
					<path d="M2108.079,1060.184c-1.669,3.351-5.738,4.714-9.089,3.045s-4.714-5.737-3.045-9.089
						c1.669-3.35,5.738-4.713,9.088-3.045C2108.385,1052.766,2109.748,1056.834,2108.079,1060.184z"/>
					<g>
						<path style="fill:#0D0C1A;" d="M2115.572,1054.572c-0.462-0.23-0.852-0.613-1.086-1.119
							c-3.396-7.328-12.574-8.756-12.666-8.77c-1.285-0.188-2.18-1.382-1.994-2.668s1.373-2.18,2.66-1.998
							c0.479,0.068,11.789,1.77,16.277,11.455c0.547,1.18,0.033,2.582-1.148,3.129
							C2116.939,1054.914,2116.191,1054.88,2115.572,1054.572z"/>
					</g>
					<g>
						<path style="fill:#0D0C1A;" d="M2045.246,1038.979c-0.226-0.113-0.438-0.264-0.626-0.455
							c-0.915-0.925-0.905-2.418,0.021-3.332c7.189-7.104,16.051-4.158,16.424-4.029c1.229,0.424,1.885,1.766,1.46,2.996
							c-0.423,1.229-1.758,1.881-2.985,1.465c-0.291-0.098-6.529-2.075-11.586,2.922
							C2047.217,1039.271,2046.123,1039.415,2045.246,1038.979z"/>
					</g>
					<path style="fill:#DE623C;" d="M2062.928,1061.67c-3.436,3.533-6.449,7.174-9.729,9.241c-1.105,0.696-1.459,2.168-0.817,3.307
						c2.649,4.698,10.386,8.566,15.128,10.581c0.693,0.295,1.262-0.611,0.695-1.107c-4.787-4.199-6.844-7.291-7.708-8.988
						c-0.429-0.844-0.417-1.836,0.01-2.682c0.981-1.938,2.937-5.893,4.259-9.168
						C2065.222,1061.723,2063.777,1060.795,2062.928,1061.67z"/>
					<path style="fill:#F37A50;" d="M2152.438,1066.986c-8.508,6.619-11.014,17.629-5.596,24.592
						c5.416,6.962,16.705,7.24,25.213,0.621c8.507-6.619,11.013-17.629,5.596-24.592
						C2172.234,1060.646,2160.945,1060.367,2152.438,1066.986z"/>
					<g>
						<path style="fill:#DE623C;" d="M2157.281,1089.557c-0.318-0.158-0.604-0.391-0.831-0.693
							c-3.267-4.347-3.574-9.229-0.821-13.063c2.818-3.925,8.051-5.722,12.442-4.271c1.235,0.41,1.906,1.742,1.498,2.979
							c-0.408,1.234-1.741,1.906-2.978,1.498c-2.406-0.795-5.539,0.322-7.135,2.543c-1.531,2.135-1.262,4.791,0.761,7.482
							c0.782,1.041,0.573,2.518-0.468,3.299C2159.012,1089.887,2158.055,1089.941,2157.281,1089.557z"/>
					</g>
					<path style="fill:#FFFFFF;" d="M2101.633,1097.215c0.986-1.331-0.08-3.191-1.725-2.994c-4.182,0.498-11.095,1.18-17.693,1.18
						c-6.6,0-13.512-0.682-17.693-1.18c-1.645-0.197-2.711,1.663-1.725,2.994c3.033,4.092,9.303,10.303,19.418,10.303
						S2098.6,1101.307,2101.633,1097.215z"/>
				</g>
				<path style="fill:#0D0C1A;" d="M2170.15,1062.76c-41.791-5.597-100.266-48.174-105.063-70.025
					c8.084-26.249,51.153-39.44,75.473-27.281C2164.879,977.614,2187.853,1029.729,2170.15,1062.76z"/>
				<g>
					<g>
						<g>
							<g>
								<path style="fill:#F37A50;" d="M2378.98,1102.73c-22.711-10.922-17.891-32.112-17.891-32.112
									c-9.872,1.292-32.211,91.799-36.521,145.8c-49.436-23.75-131.178-50.496-149.546-47.221c0,0-25.631,2.026-23.985,33.3
									c1.469,27.913,37.092,35.403,37.092,35.403s156.595,43.891,172.316,29.455
									C2384.91,1244.891,2373.6,1130.434,2378.98,1102.73z"/>
							</g>
						</g>
					</g>
					<g>
						<g>
							<g>
								<g>
									<path style="fill:#F37A50;" d="M2404.375,1091.357c-9.992,4.253-24.42,3.693-25.1,14.25l-23.654-2.664l-5.541-11.725
										c7.459-33.914,46.887-56.799,50.938-58.652c10.522-4.814,15.168-7.727,16.533-6.576c1.363,1.15,7.462,9.876-7.627,17.37
										c-18.936,9.405-0.184,20.55,34.594-8.763c8.708-7.34,29.355-9.168,25.126,0.605
										C2464.982,1045.973,2449.848,1072.004,2404.375,1091.357z"/>
								</g>
							</g>
						</g>
					</g>
				</g>
			</g>
		</g>
		<g id="с">
			<path id="с_8_" style="fill:#0E6A41;" d="M771.482,1871.014h1.077c8.713,0,15.777-7.063,15.777-15.777v-269.79h-32.63v269.79
				C755.706,1863.95,762.77,1871.014,771.482,1871.014z"/>
			<path id="с_7_" style="fill:#0E6A41;" d="M657,1871.014h1.077c8.713,0,15.776-7.063,15.776-15.777v-269.79h-32.63v269.79
				C641.224,1863.95,648.287,1871.014,657,1871.014z"/>
			<path id="с_1_" style="fill:#0E6A41;" d="M491.004,1855.758c0,8.426,7.305,15.256,16.315,15.256l0,0
				c9.011,0,16.315-6.83,16.315-15.256v-270.312h-32.63V1855.758z"/>
			<path id="с_5_" style="fill:#0E6A41;" d="M392.299,1871.014h1.076c8.713,0,15.777-7.063,15.777-15.777v-269.79h-32.63v269.79
				C376.522,1863.95,383.586,1871.014,392.299,1871.014z"/>
			<path id="с_4_" style="fill:#3F964F;" d="M573.354,1156.444v343.991c0,3.914,3.173,7.086,7.087,7.086h213.281
				c21.518,0,38.962,17.445,38.962,38.963l0,0c0,21.52-17.444,38.962-38.962,38.962H573.354h-38.963
				c-21.518,0-38.962-17.442-38.962-38.962v-38.963v-351.077c0-21.519,17.444-38.962,38.962-38.962h0.001
				C555.911,1117.482,573.354,1134.926,573.354,1156.444z"/>
			
				<rect id="с_3_" x="365.765" y="1117.482" transform="matrix(-1 -1.224647e-16 1.224647e-16 -1 900.1573 2631.3232)" style="fill:#3F964F;" width="168.628" height="396.358"/>
			<path id="с_2_" style="fill:#0E6A41;" d="M404.727,1156.444v343.991c0,3.914,3.172,7.086,7.087,7.086h213.281
				c21.518,0,38.962,17.445,38.962,38.963l0,0c0,21.52-17.444,38.962-38.962,38.962H404.727h-38.963
				c-21.518,0-38.962-17.442-38.962-38.962v-38.963v-351.077c0-21.519,17.444-38.962,38.962-38.962h0.001
				C387.283,1117.482,404.727,1134.926,404.727,1156.444z"/>
		</g>
		<g id="c_8_">
			<g id="c_23_">
				<g>
					<path style="fill:#F37A50;" d="M864.59,1158.597c-10.608-11.05-22.866-15.743-23.03-35.811
						c-0.055-7.293,0.558-14.905,0.961-23.756c0.624-13.658,3.326-25.133,6.182-25.701c6.464-1.293,8.581,2.266,9.618,10.336
						c0.802,6.24-2.771,14.541,1.654,18.096c3.931,3.162,9.53,5.197,23.128-10.628c17.364-20.208,19.996-30.327,27.231-25.396
						c4.749,3.234-3.091,13.989-19.071,33.415c11.989-6.72,26.533-37.64,35.372-29.555c6.42,5.872-21.806,34.654-30.301,40.399
						c17.851-6.999,30.431-33.123,35.4-30.458c10.125,6.104-11.432,31.221-27.027,38.461c16.801-2.918,22.413-18.591,26.78-15.357
						c8.143,6.037-16.491,31.914-35.021,40.73C890.985,1145.984,864.59,1158.597,864.59,1158.597z"/>
					<path style="fill:#DE623C;" d="M869.704,1109.983c1.558,4.989,3.237,11.614-0.928,18.374c-3.987,6.471-13.066,7.52-13.066,7.52
						c5.898,1.477,12.277,0.148,16.032-5.408C876.254,1123.788,874.311,1114.338,869.704,1109.983L869.704,1109.983z"/>
				</g>
				<path id="c_24_" style="fill:#C4204A;" d="M746.5,1219.329c36.293-27.595,88.859-88.923,88.859-88.923
					c20.825,9.117,31.823,32.154,31.823,32.154c-25.114,90.514-103.034,165.539-138.482,170.958
					c-32.362,4.946-114.301-151.179-74.545-226.896l16.616-3.67C715.984,1125.168,746.5,1219.329,746.5,1219.329z"/>
			</g>
			<path style="fill:#F37A50;" d="M922.172,1824.361l38.708,9.808l15.811-34.479c-1.646-1.216-4.181-24.135-5.735-41.58
				l-62.48,8.617C911.54,1784.33,916.702,1807.35,922.172,1824.361z"/>
			<g>
				<g>
					<path style="fill:#201D40;" d="M990.482,1844.688c0,0,13.385-22.505,30.347-23.922c0,0,32.006,1.834,43.233,15.295
						c3.526,4.227,2.171,13.248,0.776,19.023c-0.871,3.608-3.928,7.521-13.388,10.496c-13.973,4.396-32.817,7.09-67.534-1.91
						c-41.648-10.795-48.296-6.35-63.688-11.31c-15.953-5.14-10.826-24.64-6.474-43.63
						C913.753,1808.73,925.363,1831.971,990.482,1844.688z"/>
				</g>
				<g>
					<g>
						<path style="fill:#2C2858;" d="M977.739,1796.316c0,0,18.588,11.26,42.894,16.84c13.598,3.121,49.845,10.152,44.009,34.318
							c-0.871,3.605-3.928,7.52-13.388,10.496c-13.972,4.396-32.817,7.088-67.534-1.91c-41.648-10.797-48.296-6.352-63.688-11.311
							c-15.953-5.139-8.591-27.271-4.239-46.264l0,0c0.393,4.82,2.625,17.47,31.56,28.801
							C955.994,1830.668,948.935,1792.574,977.739,1796.316z"/>
					</g>
				</g>
				<g>
					<path style="fill:#494C7F;" d="M972.329,1825.433c1.387-0.093,2.617-1.066,2.971-2.487c2.94-11.82,15.155-12.654,15.673-12.689
						c1.806-0.105,3.197-1.651,3.1-3.459c-0.096-1.807-1.629-3.196-3.437-3.107c-6.07,0.287-18.411,4.374-21.717,17.669
						c-0.438,1.763,0.635,3.546,2.396,3.983C971.656,1825.426,971.997,1825.455,972.329,1825.433z"/>
				</g>
				<g>
					<path style="fill:#494C7F;" d="M987.593,1831.551c1.388-0.092,2.617-1.066,2.971-2.488
						c2.94-11.819,15.155-12.654,15.673-12.689c1.806-0.104,3.197-1.65,3.101-3.458c-0.096-1.808-1.629-3.196-3.437-3.108
						c-6.071,0.287-18.411,4.375-21.718,17.67c-0.438,1.762,0.635,3.545,2.397,3.984
						C986.92,1831.545,987.261,1831.572,987.593,1831.551z"/>
				</g>
			</g>
			<path style="fill:#F37A50;" d="M770.961,1838.941l37.922,12.506l18.197-33.281c-1.555-1.328-7.003-25.537-7.326-43.049
				l-58.4,5.368C763.172,1798.26,766.701,1821.586,770.961,1838.941z"/>
			<path style="fill:#201D40;" d="M708.018,1407.242c86.462,15.793,209.261,71.799,221.373,84.54
				c25.02,26.316,37.272,116.831,49.072,278.045l-75.669,5.051c-27.931-125.94-54.208-180.849-58.498-231.997
				c0,0-66.31,4.588-166.087-33.916c-49.186-18.981-100.443-41.127-85.69-85.563
				C604.273,1387.999,625.577,1392.184,708.018,1407.242z"/>
			<path style="fill:#2C2858;" d="M611.313,1414.773c71.836,7.422,167.651,89.619,179.764,102.36
				c25.02,26.316,28.171,116.189,39.97,277.403l-75.306,6.943c-12.194-83.519-47.831-179.213-47.727-240.537
				c0,0-67.408-14.613-171.751-38.08c-57.078-12.838-74.206-21.679-85.123-58.952c-3.714-12.681-8.749-42.062-3.053-48.618
				C473.292,1386.287,543.317,1407.748,611.313,1414.773z"/>
			<g>
				<g>
					<path style="fill:#201D40;" d="M837.671,1864.023c0,0,14.935-21.508,31.955-21.729c0,0,31.797,4.082,42.049,18.299
						c3.22,4.465,1.234,13.367-0.564,19.031c-1.123,3.537-4.447,7.226-14.093,9.529c-14.247,3.402-33.234,4.762-67.232-6.658
						c-40.785-13.699-47.729-9.733-62.734-15.762c-15.552-6.25-9.066-25.341-3.389-43.978
						C763.663,1822.756,773.608,1846.756,837.671,1864.023z"/>
				</g>
				<g>
					<g>
						<path style="fill:#2C2858;" d="M828.364,1814.875c0,0,17.75,12.539,41.603,19.814c13.345,4.072,49.008,13.635,41.485,37.332
							c-1.123,3.535-4.448,7.225-14.093,9.527c-14.248,3.401-33.235,4.762-67.232-6.656c-40.786-13.701-47.729-9.734-62.734-15.764
							c-15.552-6.25-6.65-27.809-0.973-46.447l0,0c0.053,4.835,1.389,17.61,29.456,30.948
							C804.255,1847.611,799.895,1809.115,828.364,1814.875z"/>
					</g>
				</g>
				<g>
					<path style="fill:#494C7F;" d="M814.56,1844.799c1.387-0.092,2.617-1.065,2.971-2.487
						c2.939-11.819,15.155-12.653,15.673-12.688c1.806-0.106,3.197-1.65,3.101-3.459c-0.097-1.809-1.629-3.197-3.437-3.107
						c-6.071,0.285-18.411,4.373-21.718,17.668c-0.438,1.762,0.636,3.547,2.397,3.984
						C813.887,1844.793,814.228,1844.822,814.56,1844.799z"/>
				</g>
				<g>
					<path style="fill:#494C7F;" d="M829.824,1850.917c1.387-0.093,2.617-1.066,2.97-2.487c2.94-11.82,15.156-12.654,15.673-12.689
						c1.806-0.104,3.197-1.65,3.101-3.459c-0.097-1.807-1.629-3.196-3.437-3.107c-6.07,0.287-18.41,4.374-21.717,17.668
						c-0.439,1.764,0.635,3.547,2.397,3.984C829.151,1850.91,829.492,1850.939,829.824,1850.917z"/>
				</g>
			</g>
			<g>
				<polygon id="v-2_1_" style="fill:#DE623C;" points="563.879,1030.543 563.913,1030.543 592.574,1030.648 599.065,1098.344 
					565.608,1116.01 529.93,1098.543 535.696,1030.648 				"/>
				<g>
					<g>
						<path style="fill:#2C2858;" d="M560.129,1022.621c-24.71,8.705-45.246-20.739-45.246-20.739
							c-16.125,0.916-16.974-15.157-16.974-15.157c-7.884-0.608-19.488-6.325-19.478-21.111c0.008-12.519,11.823-14.578,10.2-28.874
							c-1.303-11.471-15.494-37.122,19.782-47.256c0,0-3.785-21.017,16.575-30.802c24.961-11.998,35.016,2.366,47.193,2.622
							c13.6,0.284,38.662-17.779,48.958,11.251c0,0,18.5-3.693,29.959,7.807c10.677,10.712,9.627,27.696,5.643,34.745
							c0,0,15.881,1.723,22.403,14.943c4.373,8.865,3.433,21.794-4.586,29.764c-5.102,5.071-10.665,6.681-10.665,6.681
							c-5.808,2.333-2.572,18.557-7.183,22.865c-7.402,6.916-15.869,12.521-24.657,17.425L560.129,1022.621z"/>
						<path style="fill:#F37A50;" d="M510.647,985.803c4.725,47.243,44.478,85.642,81.583,81.933
							c37.104-3.713,57.509-48.129,52.785-95.371c-4.725-47.243-38.634-82.533-75.738-78.823
							C532.171,897.254,505.922,938.56,510.647,985.803z"/>
						<path d="M625.782,989.519c1.149,3.392,4.831,5.21,8.223,4.061c3.393-1.15,5.21-4.831,4.061-8.224
							c-1.149-3.392-4.832-5.21-8.223-4.06C626.45,982.446,624.631,986.127,625.782,989.519z"/>
						<path d="M575.74,990.51c1.244,3.672,5.23,5.639,8.902,4.395c3.672-1.244,5.64-5.229,4.396-8.901
							c-1.245-3.672-5.23-5.64-8.902-4.397C576.463,982.852,574.496,986.837,575.74,990.51z"/>
						<path style="fill:#DE623C;" d="M605.379,990.812c6.508,9.073,14.728,20.125,14.728,20.125s-2.823,10.185-15.961,11.163
							c5.419-2.655,10.682-6.75,7.941-14.024C609.347,1000.804,605.379,990.812,605.379,990.812z"/>
						<g>
							<path style="fill:#2C2858;" d="M567.01,982.324c-0.239-0.069-0.474-0.167-0.699-0.294c-1.556-0.88-2.102-2.855-1.222-4.411
								c2.404-4.246,9.46-11.564,18.955-8.873c1.725,0.516,2.718,2.275,2.23,3.996c-0.487,1.719-2.276,2.718-3.996,2.23
								c-7.03-1.993-11.513,5.757-11.558,5.836C569.968,982.138,568.417,982.73,567.01,982.324z"/>
						</g>
						<g>
							<path style="fill:#2C2858;" d="M625.315,976.547c-0.445-0.129-0.863-0.373-1.206-0.734c-1.025-1.08-0.981-2.786,0.099-3.813
								c0.169-0.161,4.21-3.933,9.629-3.4c3.702,0.364,7.003,2.564,9.81,6.538c0.859,1.217,0.57,2.899-0.647,3.758
								c-1.216,0.859-2.899,0.57-3.758-0.646c-1.863-2.638-3.859-4.079-5.933-4.283c-2.945-0.289-5.364,1.921-5.387,1.943
								C627.203,976.595,626.204,976.804,625.315,976.547z"/>
						</g>
						<path style="fill:#2C2858;" d="M653.652,924.367l-82.951-47.019l-78.57,64.312l24.8,61.369
							c-4.166-29.94,15.947-24.369,23.394-35.008c7.549-10.787,8.693-25.313,33.547-18.107c0,0,15.34-16.349,28.409-0.859
							c10.105,11.978,19.264,7.265,29.106,5.866c11.608-1.65,11.304,10.043,18.208,8.164L653.652,924.367z"/>
						<g>
							<path style="fill:#F37A50;" d="M520.875,981.397c7.836,7.953,8.913,19.598,2.405,26.011
								c-6.508,6.412-18.137,5.164-25.973-2.787c-7.836-7.953-8.914-19.599-2.406-26.012
								C501.411,972.196,513.04,973.444,520.875,981.397z"/>
							<g>
								<path style="fill:#DE623C;" d="M512.836,1003.914c0.348-0.12,0.673-0.319,0.948-0.6c3.945-4.018,4.924-8.99,2.618-13.301
									c-2.36-4.413-7.489-6.968-12.195-6.075c-1.325,0.251-2.194,1.529-1.943,2.853c0.251,1.325,1.529,2.195,2.853,1.943
									c2.578-0.489,5.645,1.084,6.98,3.582c1.283,2.4,0.645,5.091-1.797,7.579c-0.944,0.962-0.93,2.507,0.032,3.452
									C511.014,1004.017,511.989,1004.205,512.836,1003.914z"/>
							</g>
						</g>
						<path style="fill:#FFFFFF;" d="M620.655,1037.029c1.199-1.465,0.085-3.646-1.804-3.512c-4.802,0.34-12.733,0.736-20.267,0.373
							c-7.534-0.362-15.391-1.52-20.137-2.318c-1.867-0.315-3.186,1.75-2.133,3.322c3.238,4.84,10.056,12.275,21.604,12.832
							C609.466,1048.282,616.967,1041.537,620.655,1037.029z"/>
					</g>
				</g>
			</g>
			<g id="v_1_">
				<path style="fill:#E62552;" d="M448.101,1416.6c0,0,59.98,6.188,116.186,6.561c56.207-0.413,116.186-11.318,116.186-11.318
					s-7.554-103.221-6.784-142.861c1.094-45.517-2.917-105.873-2.917-166.027c0,0-39.868-6.418-62.358-9.19
					c-3.656-0.454-6.849-0.802-9.345-1.021c0,0-12.814,26.883-68.648,0c-2.935-0.293-6.565-0.276-10.625-0.041
					c-23.455,1.402-61.231,10.252-61.231,10.252c0,59.992-2.423,118.785-1.613,164.309
					C454.455,1307.866,448.101,1416.6,448.101,1416.6z"/>
			</g>
			<g id="c_1_">
				<g>
					<path style="fill:#F37A50;" d="M603.81,1267.205c-4.527-13.842-13.091-22.92-4.952-40.178
						c2.961-6.271,6.627-12.537,10.625-19.953c6.169-11.441,13.219-20.154,15.899-19.465c6.071,1.561,6.415,5.483,3.974,12.822
						c-1.887,5.676-8.373,11.31-6.049,16.183c2.062,4.331,6.018,8.385,24.196,0.438c23.211-10.146,29.641-17.727,33.803-10.519
						c2.733,4.729-8.42,10.709-30.123,20.755c13.042-0.809,38.257-21.293,42.493-10.722c3.077,7.679-32.977,20.689-42.622,22.103
						c18.178,1.369,39.732-15.816,42.89-11.484c6.154,9.407-22.674,22.026-39.02,21.794c15.596,4.433,26.869-6.677,29.275-2.104
						c4.485,8.531-27.293,20.532-46.803,20.438C631.623,1267.291,603.81,1267.205,603.81,1267.205z"/>
				</g>
				<path id="c_2_" style="fill:#C4204A;" d="M470.055,1253.611c45.481-3.178,123.068-25.643,123.068-25.643
					c12.416,19.043,8.982,44.338,8.982,44.338c-70.631,61.924-176.932,81.943-209.546,67.037
					c-29.776-13.606-8.756-194.867,66.006-236.389l2.592,0.242C486.787,1146.566,470.055,1253.611,470.055,1253.611z"/>
			</g>
			<path style="fill:#C4204A;" d="M519.795,1092.701v0.008c3.883,6.484,9.379,11.389,17.127,15.287
				c12.271,6.191,28.949,8.816,39.217,8.014c8.129-0.639,17.147-3.955,22.926-8.535c6.136-4.871,8.804-11.078,9.348-13.712
				c-3.656-0.454-7.41-1.021-9.906-1.239c0,0-12.253,27.102-68.086,0.219C527.486,1092.449,523.856,1092.466,519.795,1092.701z"/>
		</g>
		<g>
			<path style="fill:#7F95DB;" d="M675.108,1381.782h259.856l51.293-163.089c2.369-7.533-3.256-15.199-11.152-15.199H739.76
				c-5.106,0-9.621,3.314-11.152,8.184L675.108,1381.782z"/>
			<path style="fill:#95A6DB;" d="M694.818,1381.782h259.856l51.294-163.089c2.369-7.533-3.257-15.199-11.153-15.199H759.47
				c-5.105,0-9.621,3.314-11.153,8.184L694.818,1381.782z"/>
			<path style="fill:#B4C2F0;" d="M847.802,1295.851c-2.862,10.074,2.234,20.348,11.382,22.947
				c9.148,2.6,18.884-3.461,21.747-13.535c2.862-10.074-2.234-20.348-11.382-22.947
				C860.401,1279.718,850.665,1285.777,847.802,1295.851z"/>
			<path style="fill:#7F95DB;" d="M527.479,1364.754h167.34v16.621h-183.96l0,0C510.858,1372.195,518.299,1364.754,527.479,1364.754
				z"/>
		</g>
		<g>
			<path style="fill:#7F95DB;" d="M1902.942,1381.782h-252.851l-49.91-158.692c-2.306-7.33,3.169-14.789,10.852-14.789h229.001
				c4.969,0,9.361,3.225,10.852,7.963L1902.942,1381.782z"/>
			<path style="fill:#95A6DB;" d="M1883.764,1381.782h-252.852l-49.91-158.692c-2.306-7.33,3.168-14.789,10.852-14.789h229.001
				c4.968,0,9.36,3.225,10.852,7.963L1883.764,1381.782z"/>
			<path style="fill:#B4C2F0;" d="M1734.903,1298.168c2.785,9.803-2.173,19.799-11.075,22.328
				c-8.901,2.529-18.375-3.367-21.16-13.17c-2.785-9.803,2.173-19.799,11.074-22.328
				C1722.645,1282.469,1732.118,1288.365,1734.903,1298.168z"/>
			<path style="fill:#7F95DB;" d="M2046.592,1365.213h-162.828v16.172h179l0,0
				C2062.764,1372.453,2055.523,1365.213,2046.592,1365.213z"/>
		</g>
		<g id="с_32_">
			<path id="с_33_" style="fill:#617AC9;" d="M2146.867,1425.389H429.308c-18.217,0-32.985-9.938-32.985-22.197l0,0
				c0-12.258,14.768-22.195,32.985-22.195h1717.559c18.217,0,32.985,9.938,32.985,22.195l0,0
				C2179.853,1415.45,2165.084,1425.389,2146.867,1425.389z"/>
		</g>
		<g>
			<path style="fill:#B4C2F0;" d="M1504.067,1371.817h-288.422l-10.77-166.063c-0.717-11.047,8.05-20.4,19.12-20.4h271.731
				c11.068,0,19.836,9.354,19.119,20.402L1504.067,1371.817z"/>
			<path style="fill:#95A6DB;" d="M1504.067,1380.996h-288.422l-10.77-166.063c-0.717-11.046,8.05-20.399,19.12-20.399h271.731
				c11.068,0,19.836,9.354,19.119,20.4L1504.067,1380.996z"/>
			<path style="fill:#B4C2F0;" d="M1372.385,1295.775c0,9.496-7.696,17.191-17.191,17.191c-9.494,0-17.191-7.695-17.191-17.191
				c0-9.493,7.697-17.189,17.191-17.189C1364.689,1278.586,1372.385,1286.282,1372.385,1295.775z"/>
		</g>
		<path id="c_25_" style="fill:#F37A50;" d="M1494.9,1370.297c0.506-0.697,1.131-1.254,1.803-1.747
			c-0.119-0.083-0.242-0.156-0.361-0.243c-7.016-5.074-9.748-13.268-6.105-18.297c0.598-0.826,1.342-1.501,2.179-2.053
			c-3.138-4.531-3.801-9.731-1.2-13.322c1.033-1.426,2.477-2.43,4.16-3.043c-3.428-4.32-4.107-9.953-1.195-13.974
			c3.644-5.03,11.451-5.597,17.439-1.265c5.987,4.332,7.889,11.922,4.245,16.953c-0.922,1.273-2.112,2.258-3.472,2.953
			c5.586,5.076,7.52,12.204,4.226,16.753c-0.599,0.825-1.341,1.501-2.179,2.054c3.138,4.53,3.802,9.73,1.199,13.322
			c-0.959,1.324-2.27,2.287-3.801,2.91c3.217,3.697,3.938,8.713,1.377,12.248c-3.078,4.248-9.672,4.727-14.728,1.068
			C1493.43,1380.956,1491.824,1374.545,1494.9,1370.297z"/>
		<path id="c_26_" style="fill:#F37A50;" d="M1062.905,1390.723c-0.671-0.539-1.195-1.193-1.653-1.889
			c-0.089,0.115-0.168,0.234-0.261,0.35c-5.425,6.748-13.745,9.062-18.584,5.17c-0.794-0.641-1.431-1.418-1.94-2.281
			c-4.683,2.902-9.91,3.303-13.365,0.522c-1.372-1.104-2.301-2.596-2.828-4.309c-4.489,3.205-10.149,3.598-14.017,0.484
			c-4.839-3.894-5.008-11.721-0.378-17.481c4.63-5.76,12.308-7.273,17.147-3.379c1.225,0.984,2.148,2.224,2.772,3.617
			c5.355-5.322,12.571-6.891,16.947-3.371c0.794,0.64,1.431,1.416,1.941,2.281c4.683-2.904,9.91-3.303,13.366-0.524
			c1.274,1.026,2.169,2.385,2.714,3.945c3.856-3.025,8.901-3.49,12.301-0.754c4.088,3.289,4.231,9.899,0.319,14.763
			C1073.476,1392.733,1066.992,1394.012,1062.905,1390.723z"/>
		<polygon style="fill:#617AC9;" points="471.033,1867.945 432.771,1867.747 533.406,1415.881 569.998,1423.582 		"/>
		<polygon style="fill:#617AC9;" points="2058.852,1867.945 2097.115,1867.747 1996.479,1415.881 1959.887,1423.582 		"/>
	</g>
	<g>
		<path style="fill:#F3BC3D;" d="M1927.979,391.695l22.601,147.728c0.862,5.631-2.996,10.884-8.619,11.744l-256.744,39.281
			c-5.621,0.86-10.875-2.998-11.736-8.63l-22.602-147.728c-0.861-5.631,2.997-10.884,8.619-11.744l256.744-39.281
			C1921.865,382.205,1927.117,386.064,1927.979,391.695z"/>
		<path style="fill:#F3CD75;" d="M1927.979,391.695l1.25,8.167l-104.125,101.913c-10.059,10.235-25.6,12.749-38.37,6.206
			l-135.141-69.229l-0.714-4.663c-0.861-5.626,3.002-10.885,8.629-11.746l256.725-39.277
			C1921.859,382.207,1927.118,386.069,1927.979,391.695z"/>
	</g>
	<g>
		<path style="fill:#FFFFFF;" d="M639.388,790.849h265.267c20.925,0,37.888-16.963,37.888-37.888V639.764
			c0-20.925-16.963-37.887-37.888-37.887H639.388c-20.925,0-37.888,16.962-37.888,37.887v113.197
			C601.5,773.886,618.462,790.849,639.388,790.849z"/>
		<path style="fill:#FFFFFF;" d="M649.795,782.382v70.35c0,5.647,7.599,7.467,10.157,2.432l36.974-72.782H649.795z"/>
		<path style="fill:#E3EAFF;" d="M645.97,660.936h248.908c9.572,0,17.333-7.76,17.333-17.332l0,0c0-9.573-7.76-17.333-17.333-17.333
			H645.97c-9.572,0-17.333,7.76-17.333,17.333l0,0C628.638,653.176,636.398,660.936,645.97,660.936z"/>
		<path style="fill:#E3EAFF;" d="M645.97,715.917h248.908c9.572,0,17.333-7.759,17.333-17.332l0,0
			c0-9.572-7.76-17.332-17.333-17.332H645.97c-9.572,0-17.333,7.76-17.333,17.332l0,0
			C628.638,708.158,636.398,715.917,645.97,715.917z"/>
		<path style="fill:#E3EAFF;" d="M643.425,770.899h159.733c8.167,0,14.787-6.621,14.787-14.788v-5.09
			c0-8.166-6.62-14.787-14.787-14.787H643.425c-8.167,0-14.788,6.621-14.788,14.787v5.09
			C628.638,764.278,635.258,770.899,643.425,770.899z"/>
	</g>
	<g>
		<path style="fill:#CDD8FA;" d="M1248.701,893.045H961.689c-22.641,0-40.994-18.354-40.994-40.994V693.966
			c0-22.64,18.353-40.994,40.994-40.994h287.012c22.64,0,40.994,18.354,40.994,40.994v158.085
			C1289.694,874.691,1271.341,893.045,1248.701,893.045z"/>
		<path style="fill:#CDD8FA;" d="M1237.439,883.885v76.116c0,6.111-8.222,8.08-10.989,2.631l-40.005-78.748H1237.439z"/>
	</g>
	<g>
		<g>
			<path style="fill:#CDD8FA;" d="M2212.355,703.126l-315.803-123.394c-20.061-7.837-29.968-30.454-22.131-50.513l144.457-369.703
				c7.838-20.06,30.453-29.968,50.513-22.13l315.803,123.396c20.06,7.837,29.968,30.453,22.13,50.512l-144.456,369.704
				C2255.03,701.057,2232.415,710.965,2212.355,703.126z"/>
			<g>
				
					<rect x="2041.393" y="266.011" transform="matrix(0.9314 0.3639 -0.3639 0.9314 291.864 -720.6102)" style="fill:#FFFFFF;" width="33.386" height="296.303"/>
				
					<rect x="2087.842" y="284.16" transform="matrix(0.9314 0.3639 -0.3639 0.9314 301.6492 -736.2622)" style="fill:#FFFFFF;" width="33.385" height="296.302"/>
				
					<rect x="2134.289" y="302.308" transform="matrix(0.9314 0.364 -0.364 0.9314 311.4744 -751.9753)" style="fill:#FFFFFF;" width="33.386" height="296.302"/>
				
					<rect x="2180.736" y="320.457" transform="matrix(0.9314 0.3639 -0.3639 0.9314 321.2195 -767.566)" style="fill:#FFFFFF;" width="33.387" height="296.302"/>
				
					<rect x="2227.184" y="338.606" transform="matrix(0.9314 0.3639 -0.3639 0.9314 331.0232 -783.2458)" style="fill:#FFFFFF;" width="33.387" height="296.302"/>
				
					<rect x="2102.082" y="251.016" transform="matrix(0.9314 0.3639 -0.3639 0.9314 239.4867 -753.326)" style="fill:#FFFFFF;" width="33.387" height="15.65"/>
				
					<rect x="2046.521" y="257.683" transform="matrix(0.9314 0.3639 -0.3639 0.9314 238.114 -732.6687)" style="fill:#FFFFFF;" width="33.387" height="15.651"/>
				
					<rect x="2028.549" y="303.68" transform="matrix(0.9314 0.3639 -0.3639 0.9314 253.6214 -722.9735)" style="fill:#FFFFFF;" width="33.387" height="15.65"/>
				
					<rect x="2010.576" y="349.677" transform="matrix(0.9314 0.3639 -0.3639 0.9314 269.129 -713.2784)" style="fill:#FFFFFF;" width="33.387" height="15.65"/>
				
					<rect x="1992.603" y="395.675" transform="matrix(0.9314 0.3639 -0.3639 0.9314 284.6335 -703.5784)" style="fill:#FFFFFF;" width="33.387" height="15.65"/>
				
					<rect x="1992.603" y="395.675" transform="matrix(0.9314 0.3639 -0.3639 0.9314 284.6335 -703.5784)" style="fill:#FFFFFF;" width="33.387" height="15.65"/>
				
					<rect x="1974.631" y="441.671" transform="matrix(0.9314 0.3639 -0.3639 0.9314 300.1279 -693.8644)" style="fill:#FFFFFF;" width="33.387" height="15.65"/>
				
					<rect x="1956.658" y="487.668" transform="matrix(0.9314 0.3639 -0.3639 0.9314 315.6349 -684.1697)" style="fill:#FFFFFF;" width="33.386" height="15.65"/>
				
					<rect x="2148.531" y="269.164" transform="matrix(0.9314 0.3639 -0.3639 0.9314 249.2878 -769.0059)" style="fill:#FFFFFF;" width="33.386" height="15.651"/>
				
					<rect x="2194.978" y="287.313" transform="matrix(0.9314 0.364 -0.364 0.9314 259.1047 -784.7139)" style="fill:#FFFFFF;" width="33.386" height="15.65"/>
				
					<rect x="2241.426" y="305.462" transform="matrix(0.9314 0.364 -0.364 0.9314 268.9082 -800.3962)" style="fill:#FFFFFF;" width="33.386" height="15.65"/>
				
					<rect x="2287.873" y="323.611" transform="matrix(0.9314 0.3639 -0.3639 0.9314 278.6594 -815.9861)" style="fill:#FFFFFF;" width="33.387" height="15.65"/>
			</g>
			<path style="fill:#FFFFFF;" d="M2333.945,303.881l-242.002-94.559c-9.398-3.672-14.04-14.267-10.367-23.665l0,0
				c3.672-9.397,14.266-14.039,23.664-10.367l242.002,94.558c9.398,3.673,14.039,14.268,10.367,23.665l0,0
				C2353.938,302.911,2343.343,307.552,2333.945,303.881z"/>
		</g>
	</g>
	<g>
		<path style="fill:#95A6DB;" d="M1163.189,833.065c0,3.188-0.545,6.276-1.571,9.206c-5.126,14.722-22.245,25.535-42.577,25.535
			c-20.329,0-37.447-10.814-42.573-25.535c-1.026-2.93-1.571-6.018-1.571-9.206H1163.189z"/>
		<path style="fill:#7F95DB;" d="M1163.189,833.065c0,3.188-0.545,6.276-1.571,9.206h-85.15c-1.026-2.93-1.571-6.018-1.571-9.206
			H1163.189z"/>
		<path style="fill:#F3BC3D;" d="M1211.491,684.138c0-51.014-41.319-92.378-92.316-92.449
			c-50.298-0.071-91.665,40.462-92.567,90.752c-0.394,21.996,6.897,42.274,19.365,58.333c15.775,20.32,24.531,45.207,24.531,70.933
			v0.454h97.076v-0.453c0-25.762,8.821-50.651,24.596-71.017C1204.284,725.059,1211.491,705.441,1211.491,684.138z"/>
		<g>
			<path style="fill:#FFFFFF;" d="M1133.029,801.698c-0.258,0-0.52-0.043-0.778-0.133c-1.232-0.429-1.883-1.776-1.454-3.008
				c0.109-0.313,11.009-31.723,18.931-63.706c14.041-56.69,6.816-65.906,3.058-67.236c-11.05-3.912-19.848,1.875-25.283,7.419
				c-1.597,1.629-3.129,3.467-4.57,5.472c2.358,4.082,4.488,8.592,6.271,13.356c4.896,13.079,6.197,25.296,3.48,32.678
				c-2.096,5.696-6.549,8.584-12.542,8.133c-5.653-0.425-9.79-3.698-11.961-9.465c-2.49-6.614-2.168-16.338,0.883-26.682
				c1.926-6.53,4.809-12.814,8.299-18.228c-3.26-5.158-7.034-9.595-11.131-12.582c-6.083-4.436-11.797-4.628-16.982-0.575
				c-10.706,8.37-11.116,33.541-1.185,72.792c7.656,30.261,18.891,58.238,19.003,58.518c0.488,1.21-0.097,2.587-1.307,3.075
				c-1.21,0.489-2.588-0.097-3.076-1.307c-0.114-0.281-11.454-28.518-19.191-59.084c-10.586-41.818-9.628-67.966,2.845-77.718
				c6.853-5.356,14.907-5.186,22.679,0.479c3.896,2.84,7.745,7.095,11.235,12.302c1.24-1.609,2.536-3.108,3.875-4.473
				c9.043-9.225,19.782-12.267,30.235-8.566c6.509,2.304,9.179,11.064,8.162,26.781c-0.749,11.591-3.513,27.093-8.216,46.075
				c-7.975,32.192-18.939,63.781-19.049,64.098C1134.921,801.086,1134.006,801.698,1133.029,801.698z M1120.055,684.928
				c-2.673,4.538-4.895,9.642-6.456,14.934c-2.726,9.239-3.097,18.091-0.993,23.679c1.518,4.033,4.1,6.133,7.892,6.418
				c3.912,0.294,6.374-1.311,7.75-5.052C1131.381,716.393,1127.58,699.004,1120.055,684.928z"/>
		</g>
		<path style="fill:#95A6DB;" d="M1159.393,836.09h-80.7c-9.62,0-17.419-7.799-17.419-17.42v-0.732
			c0-9.62,7.799-17.419,17.419-17.419h80.7c9.62,0,17.419,7.799,17.419,17.419v0.732
			C1176.812,828.291,1169.013,836.09,1159.393,836.09z"/>
		<path style="fill:#F3BC3D;" d="M1276.099,687.938h-30.228c-4.302,0-7.79-3.488-7.79-7.79l0,0c0-4.302,3.488-7.791,7.79-7.791
			h30.228c4.302,0,7.79,3.489,7.79,7.791l0,0C1283.889,684.45,1280.401,687.938,1276.099,687.938z"/>
		<path style="fill:#F3BC3D;" d="M992.213,687.938h-30.228c-4.302,0-7.79-3.488-7.79-7.79l0,0c0-4.302,3.488-7.791,7.79-7.791
			h30.228c4.302,0,7.79,3.489,7.79,7.791l0,0C1000.003,684.45,996.516,687.938,992.213,687.938z"/>
		<path style="fill:#F3BC3D;" d="M1011.423,623.983l-24.055-18.305c-3.424-2.604-4.087-7.493-1.482-10.917l0,0
			c2.605-3.425,7.493-4.087,10.917-1.482l24.055,18.304c3.424,2.605,4.087,7.493,1.481,10.917l0,0
			C1019.734,625.925,1014.847,626.589,1011.423,623.983z"/>
		<path style="fill:#F3BC3D;" d="M1225.121,623.983l24.055-18.305c3.424-2.604,4.087-7.493,1.482-10.917h0
			c-2.605-3.425-7.493-4.087-10.917-1.482l-24.055,18.304c-3.424,2.605-4.087,7.493-1.482,10.917l0,0
			C1216.81,625.925,1221.697,626.589,1225.121,623.983z"/>
		<path style="fill:#F3BC3D;" d="M1011.423,745.973l-24.055,18.304c-3.424,2.606-4.087,7.494-1.482,10.917l0,0
			c2.605,3.423,7.493,4.087,10.917,1.481l24.055-18.304c3.424-2.605,4.087-7.494,1.481-10.917l0,0
			C1019.734,744.031,1014.847,743.367,1011.423,745.973z"/>
		<path style="fill:#F3BC3D;" d="M1225.121,745.973l24.055,18.304c3.424,2.606,4.087,7.494,1.482,10.917h0
			c-2.605,3.423-7.493,4.087-10.917,1.481l-24.055-18.304c-3.424-2.605-4.087-7.494-1.482-10.917l0,0
			C1216.81,744.031,1221.697,743.367,1225.121,745.973z"/>
	</g>
	<g>
		<path style="fill:#CDD8FA;" d="M1353.046,480.31h-310.269c-7.83,0-14.178-6.349-14.178-14.178V259.683
			c0-7.83,6.348-14.177,14.178-14.177h310.269c7.83,0,14.178,6.347,14.178,14.177v206.448
			C1367.223,473.961,1360.875,480.31,1353.046,480.31z"/>
		<path style="fill:#FFFFFF;" d="M1301.638,324.83h-239.265c-8.418,0-15.242-6.823-15.242-15.243v-4.95
			c0-8.417,6.824-15.242,15.242-15.242h239.265c8.418,0,15.241,6.824,15.241,15.242v4.95
			C1316.879,318.006,1310.056,324.83,1301.638,324.83z"/>
		<path style="fill:#FFFFFF;" d="M1203.969,371.402h-150.918c-3.269,0-5.919-2.651-5.919-5.921v-5.877c0-3.27,2.651-5.92,5.919-5.92
			h150.918c3.27,0,5.92,2.65,5.92,5.92v5.877C1209.889,368.751,1207.238,371.402,1203.969,371.402z"/>
		<path style="fill:#FFFFFF;" d="M1158.258,442.762h-106.127c-2.762,0-5-2.238-5-5v-7.717c0-2.761,2.238-5,5-5h106.127
			c2.761,0,5,2.239,5,5v7.717C1163.258,440.524,1161.02,442.762,1158.258,442.762z"/>
		<path style="fill:#FFFFFF;" d="M1237.634,404.832h-183.99c-3.597,0-6.513-2.916-6.513-6.514v-4.69
			c0-3.598,2.916-6.514,6.513-6.514h183.99c3.597,0,6.513,2.916,6.513,6.514v4.69
			C1244.147,401.916,1241.231,404.832,1237.634,404.832z"/>
	</g>
	<g>
		<g>
			<path style="fill:#C4204A;" d="M1333.373,489.949l8.08,28.399c-2.13,0.16-4.27,0.22-6.42,0.18
				c-76.55,2.04-103.36-104.24-65.97-102.96c7.82,0.809,13.51,7.8,12.7,15.62c-3.01,29.29,18.37,55.57,47.66,58.58
				C1330.763,489.858,1332.072,489.928,1333.373,489.949z"/>
			<path style="fill:#F5A3B7;" d="M1416.322,445.028c-0.41,4.98-1.33,9.849-2.699,14.56l-28.761-5.13
				c9.62-28.78-3.87-65.44-44.52-70.92c-10.57-1.089-21.1,0.96-30.44,5.911c-16.79,8.4-29.72-15.931-13.349-25.14
				C1351.993,333.098,1424.553,381.678,1416.322,445.028z"/>
			<path style="fill:#E62552;" d="M1413.623,459.588c-9.24,31.789-38.991,56.44-72.17,58.76l-8.08-28.399
				c27.26,0.439,44.87-15.651,51.49-35.491L1413.623,459.588z"/>
		</g>
		<path style="fill:#C4204A;" d="M1360.71,436.654c0,14.263-11.563,25.827-25.826,25.827c-14.264,0-25.827-11.564-25.827-25.827
			c0-14.264,11.563-25.826,25.827-25.826C1349.147,410.828,1360.71,422.391,1360.71,436.654z"/>
	</g>
</g>
</svg>
